<svg id="Layer_1" data-name="Layer 1" xmlns="http://www.w3.org/2000/svg" viewBox="0 0 18 18"><defs><style>.cls-1{fill:#fff;fill-rule:evenodd;}</style></defs><path class="cls-1" d="M10,1A9,9,0,0,0,3.63,16.36,9,9,0,1,0,10,1ZM3.2,6.49c1.41-4.64,6.15-5,7.73-4.7A9.88,9.88,0,0,1,15.67,4a10.89,10.89,0,0,0-4.23-1.25A7.51,7.51,0,0,0,7.83,3.83,5.06,5.06,0,0,0,5.46,6.66c-.74,2.43.9,2.83.9,2.83s.9-1.59,2.2-.68a2.06,2.06,0,0,1,.57,2.61,2.59,2.59,0,0,1-2,1.13,3.2,3.2,0,0,1-2.31-.74A5,5,0,0,1,3.2,6.49Zm-.85,6.4a9.36,9.36,0,0,1-.17-5.27A11.2,11.2,0,0,0,3,12a8.07,8.07,0,0,0,2.54,2.78,5.13,5.13,0,0,0,3.61.84c2.54-.45,2.15-2.09,2.15-2.09s-1.81-.06-1.64-1.7a2,2,0,0,1,2-1.7,2.5,2.5,0,0,1,1.92,1.31,3.3,3.3,0,0,1,.4,2.43,5.13,5.13,0,0,1-4,3.85C5.29,18.49,2.81,14.42,2.35,12.89Zm9.88,5a11,11,0,0,0,3.27-3,7.44,7.44,0,0,0,1-3.62,4.94,4.94,0,0,0-1.19-3.51C13.64,5.81,12.45,7,12.45,7s.91,1.59-.56,2.26a2.09,2.09,0,0,1-2.54-.84,2.53,2.53,0,0,1,.11-2.33,3.6,3.6,0,0,1,1.81-1.64,5.1,5.1,0,0,1,5.36,1.42c3.16,3.62,1,7.87-.06,9.11a9,9,0,0,1-4.34,2.89" transform="translate(-1 -1)"/></svg>